<svg width="1024" height="1024" viewBox="0 0 1024 1024" fill="none" xmlns="http://www.w3.org/2000/svg">
<path d="M501 449H530L546 451L567 457L584 464L602 474L612 482L622 491L637 506L650 524L663 546L670 557L681 570L691 577L712 590L725 600L739 612L753 625L766 642L778 664L786 683L790 696L792 710V745L790 760L786 777L780 792L769 813L757 829L749 838L748 839L747 840L736 849L721 860L705 868L689 874L668 879L663 880L638 881L619 880L590 874L571 868L554 861L531 849L520 843L512 842L489 853L473 861L457 868L442 873L416 879L411 880L395 881H378L358 879L335 873L318 866L302 857L288 846L274 833L263 819L254 805L245 786L240 771L236 755L235 746V713L238 694L246 670L257 649L265 637L276 624L288 612L289 611L290 610L298 603L308 595L325 584L339 575L351 564L361 550L375 526L384 514L395 501L408 488L419 479L434 469L451 461L473 453L488 450L501 449Z" fill="#F2CC8F"/>
<path d="M635 177H658L674 181L686 186L698 193L709 202L716 209L727 224L736 241L743 260L747 282L748 290V313L744 340L738 360L733 373L725 388L718 398L706 412L701 417L700 418L699 419L685 430L672 438L654 444L641 446H615L600 442L584 434L572 427L557 412L548 399L539 382L532 361L529 346L527 326L528 309L531 289L535 272L541 256L549 240L559 224L571 211L577 204L589 195L601 188L618 181L635 177Z" fill="#F2CC8F"/>
<path d="M369 177H393L412 182L426 188L440 197L452 208L461 217L472 232L482 250L487 261L492 277L497 299L498 310V335L496 350L493 366L487 384L479 399L470 411L465 417L464 418L463 419L452 428L443 434L425 442L414 445L407 446H385L367 442L354 437L343 431L329 420L315 406L314 405L313 404L303 390L293 371L285 350L281 332L279 318V284L283 262L289 244L295 231L301 221L312 207L323 197L333 190L348 182L369 177Z" fill="#F2CC8F"/>
<path d="M189 365H203L221 368L233 372L248 380L261 390L276 404L288 421L301 446L307 462L312 485V518L307 539L301 554L295 565L288 574L279 583L269 590L257 596L244 600L230 602L213 601L199 598L184 593L168 584L158 576L156.5 574.5L154 572L146 564L137 553L127 538L119 521L112 499L109 482V453L111 438L119 414L128 399L137 389L146 381L157 374L169 369L189 365Z" fill="#F2CC8F"/>
<path d="M822 365H839L857 369L869 374L880 381L890 390L900 403L907 415L913 432L916 444L917 454V478L915 493L909 516L901 535L892 550L883 561L881 564L880 565L879 566L871 573L861 582L848 590L835 596L826 599L807 602H794L778 599L765 594L749 584L739 575L733 568L725 554L718 535L714 514L713 498L716 475L720 459L728 439L736 423L744 411L747 407L748.5 405.5L751 403L755 399L756 398L757 397L765 390L773 384L786 376L800 370L822 365Z" fill="#F2CC8F"/>
</svg>
